 <svg  version="1.0" xmlns="http://www.w3.org/2000/svg"  width="3960.000000pt" height="3000.000000pt" viewBox="0 0 3960.000000 3000.000000"  preserveAspectRatio="xMidYMid meet">  <g transform="translate(0.000000,3000.000000) scale(0.100000,-0.100000)" fill="#4c6151" stroke="none"> <path d="M0 24885 l0 -5115 6736 -2 c3704 -2 6738 0 6742 4 4 4 6 2307 4 5117 l-2 5111 -6740 0 -6740 0 0 -5115z m4446 1200 c47 -35 64 -56 86 -110 16 -37 17 -126 17 -1100 0 -973 -2 -1063 -17 -1102 -21 -51 -49 -84 -100 -118 l-39 -26 -1108 0 -1107 1 -41 22 c-51 29 -96 85 -108 134 -11 51 -11 2127 0 2178 5 21 23 55 39 75 48 59 85 75 187 81 50 3 554 3 1121 0 l1031 -5 39 -30z m3299 -417 c3 -3 6 -168 5 -367 0 -291 2 -362 13 -367 8 -2 73 56 157 141 l144 145 97 0 c54 0 100 -4 103 -9 3 -5 -68 -81 -159 -169 -91 -87 -165 -165 -165 -173 0 -8 30 -45 66 -84 226 -241 284 -307 284 -320 0 -12 -18 -15 -99 -15 l-99 0 -73 83 c-39 45 -106 119 -147 164 -41 46 -80 91 -88 100 -26 36 -33 -1 -36 -172 l-3 -170 -60 -5 c-103 -9 -95 -61 -95 620 0 671 -9 613 92 607 32 -2 60 -6 63 -9z m1814 6 l31 -6 0 -605 c0 -474 -3 -604 -12 -608 -28 -8 -117 -11 -129 -4 -7 4 -15 26 -18 48 l-6 41 -35 -30 c-67 -58 -114 -73 -230 -73 -80 -1 -112 4 -135 16 -16 9 -35 17 -42 17 -18 0 -139 121 -157 156 -35 71 -46 121 -46 214 0 105 13 153 65 235 37 57 50 70 122 113 133 80 327 66 431 -31 l32 -31 0 265 c0 193 3 268 12 277 13 13 67 16 117 6z m-1000 -83 c95 -49 93 -158 -4 -202 -35 -16 -42 -16 -74 -3 -19 8 -36 16 -36 17 -1 1 -9 13 -18 27 -27 40 -22 101 11 133 21 21 57 41 80 46 1 1 20 -8 41 -18z m-3075 -357 c84 -22 138 -65 176 -141 l30 -61 -2 -289 -3 -288 -68 -3 c-59 -3 -69 0 -73 15 -2 10 -6 126 -7 258 -4 270 -8 292 -73 342 -70 53 -193 32 -250 -42 -41 -54 -47 -94 -53 -338 -5 -172 -9 -230 -19 -236 -17 -10 -113 -2 -130 12 -9 7 -12 91 -10 381 l3 371 75 0 75 0 3 -37 c2 -21 7 -38 13 -38 5 0 9 4 9 8 0 16 94 67 154 84 79 21 77 21 150 2z m5677 -5 c139 -30 266 -157 298 -299 44 -193 -44 -370 -229 -461 -58 -29 -75 -32 -160 -33 -133 -1 -192 20 -279 100 -81 75 -117 138 -133 232 -29 170 44 330 190 414 94 55 201 71 313 47z m-5168 -26 c12 -38 97 -259 107 -275 5 -10 10 -23 10 -30 0 -7 6 -25 14 -40 8 -15 17 -40 21 -57 4 -17 11 -33 16 -36 5 -4 9 -13 9 -22 0 -20 30 -83 40 -83 4 0 17 30 29 68 13 37 29 81 37 99 8 17 14 38 14 46 0 9 4 18 9 21 5 3 12 18 15 33 7 29 61 182 77 218 5 11 13 32 19 48 9 26 11 27 90 27 51 0 80 -4 80 -11 0 -11 -40 -119 -66 -176 -8 -17 -14 -36 -14 -42 0 -6 -4 -19 -10 -29 -5 -9 -26 -60 -45 -112 -20 -52 -40 -104 -45 -115 -5 -11 -26 -63 -45 -115 -20 -52 -43 -109 -51 -127 -8 -17 -14 -37 -14 -45 0 -8 -4 -18 -8 -23 -4 -6 -18 -37 -31 -70 -61 -159 -78 -190 -129 -235 -34 -31 -55 -40 -105 -48 -66 -11 -160 -3 -178 15 -12 12 -3 129 10 137 3 3 25 -1 48 -7 60 -16 118 5 147 52 32 52 67 145 68 178 1 16 -6 44 -14 63 -9 19 -32 76 -52 125 -21 50 -41 99 -46 110 -11 26 -30 70 -74 180 -21 50 -42 101 -48 115 -5 14 -16 39 -23 55 -6 17 -20 47 -29 68 -9 21 -16 42 -16 47 0 6 38 10 89 10 76 0 89 -3 94 -17z m867 -253 c4 -237 7 -268 24 -295 35 -56 63 -70 146 -70 67 0 79 3 112 28 20 16 47 47 59 70 21 39 23 58 28 287 l6 245 75 0 75 0 3 -371 c3 -420 7 -397 -78 -397 -56 0 -80 15 -80 49 0 30 -13 30 -53 0 -66 -49 -107 -61 -202 -61 -84 1 -94 3 -140 32 -52 33 -78 61 -111 123 -17 31 -19 64 -22 318 -2 155 -1 290 2 298 4 12 21 14 78 12 l73 -3 5 -265z m1738 -106 c2 -319 0 -373 -13 -384 -21 -17 -125 -17 -136 1 -10 16 -12 742 -2 753 4 4 39 5 78 4 l70 -3 3 -371z m1352 123 c0 -242 1 -255 23 -297 34 -68 64 -84 151 -84 86 0 127 21 166 88 24 40 25 48 28 271 1 127 5 240 8 253 4 22 9 23 77 20 l72 -3 0 -380 0 -380 -60 -5 c-67 -6 -95 10 -95 55 0 21 -3 24 -17 16 -10 -5 -27 -18 -38 -28 -44 -40 -105 -58 -200 -58 -82 0 -94 3 -134 29 -58 37 -87 70 -113 125 -20 42 -22 67 -26 314 -2 147 -1 278 2 292 6 24 10 25 81 25 l75 0 0 -253z"/> <path d="M2994 25655 c-26 -26 -26 -64 2 -96 11 -12 14 -75 14 -307 0 -164 -4 -293 -9 -296 -5 -4 -16 -3 -25 0 -13 5 -16 25 -16 115 l0 108 -60 64 c-62 67 -73 96 -45 127 8 9 18 30 21 47 11 54 -53 99 -110 77 -39 -15 -40 -115 -1 -130 9 -4 15 -19 15 -41 0 -28 10 -45 53 -90 28 -30 55 -62 59 -71 8 -22 10 -77 2 -85 -3 -3 -34 23 -68 58 -46 48 -72 66 -105 75 -24 6 -51 21 -60 32 -25 30 -88 29 -112 -1 -19 -24 -25 -76 -11 -99 20 -31 108 -33 127 -3 3 6 21 11 38 11 26 0 43 -11 87 -54 32 -33 64 -56 79 -58 22 -2 27 -9 29 -37 7 -69 -46 -63 -131 16 l-58 53 -109 0 c-99 0 -110 -2 -120 -20 -6 -11 -8 -25 -5 -30 3 -6 53 -10 111 -10 l105 0 47 -44 c26 -24 56 -48 67 -54 11 -5 72 -11 135 -13 l115 -4 5 53 c4 37 13 62 33 87 42 53 65 24 31 -40 -19 -37 -44 -105 -44 -123 0 -7 11 -37 25 -66 30 -64 42 -116 26 -116 -6 0 -25 15 -41 33 -22 24 -30 42 -30 72 0 55 -13 74 -40 58 -12 -8 -57 -13 -121 -13 l-101 0 -45 -50 -45 -50 -109 0 c-98 0 -109 -2 -119 -20 -6 -11 -8 -25 -5 -30 4 -6 58 -10 125 -10 l119 0 57 56 c48 46 62 55 88 52 l31 -3 1 -105 1 -104 -58 -62 c-47 -48 -59 -67 -59 -93 0 -18 -6 -34 -15 -37 -23 -9 -38 -69 -24 -96 16 -31 28 -38 65 -38 36 0 74 35 74 69 0 12 -10 35 -21 51 -29 38 -20 69 33 121 62 60 68 78 68 195 l0 104 25 0 25 0 0 -295 c0 -162 -4 -295 -8 -295 -15 0 -30 -45 -25 -73 6 -29 37 -57 64 -57 9 0 28 9 43 21 34 26 34 67 1 103 -21 22 -25 37 -25 86 0 71 15 90 71 90 53 0 59 18 59 191 0 127 2 139 18 139 39 0 42 -16 42 -258 0 -194 -3 -236 -15 -248 -24 -24 -19 -90 7 -108 30 -21 50 -20 82 5 31 25 34 63 6 99 -18 23 -20 42 -20 251 0 206 2 227 18 242 38 35 42 24 42 -131 0 -176 4 -185 73 -184 l47 1 0 -80 c0 -58 -4 -85 -15 -95 -36 -36 -5 -124 44 -124 24 0 67 34 74 59 5 19 -28 81 -43 81 -5 0 -8 129 -7 288 l2 287 33 3 32 3 0 -119 0 -119 60 -62 c33 -34 60 -70 60 -79 0 -10 -11 -29 -25 -44 -14 -15 -25 -38 -25 -51 0 -36 35 -67 75 -67 68 0 99 75 50 121 -15 15 -25 35 -25 54 0 24 -13 44 -60 90 l-60 59 0 108 0 108 35 0 c30 0 45 -9 92 -55 l57 -56 125 3 c128 3 148 10 116 42 -13 13 -38 16 -125 16 l-108 0 -45 50 -45 50 -102 0 c-56 0 -111 5 -122 11 -28 15 -37 2 -45 -62 -6 -54 -33 -99 -60 -99 -21 0 -15 37 14 88 36 64 36 131 -1 199 -16 29 -26 61 -24 77 l3 27 31 -29 c26 -24 32 -38 37 -92 4 -35 8 -65 10 -66 1 -1 60 1 131 5 l128 7 46 50 46 49 120 5 c123 5 142 13 111 44 -13 12 -37 16 -110 16 -52 0 -105 -4 -119 -10 -13 -5 -50 -31 -80 -59 -42 -38 -62 -49 -83 -48 l-28 2 -3 105 -3 105 61 60 c49 48 60 65 60 92 0 20 9 42 25 59 31 34 32 74 2 102 -32 30 -78 29 -105 -3 -29 -33 -28 -66 3 -99 14 -15 25 -35 25 -45 0 -10 -27 -48 -60 -84 l-60 -65 0 -110 c0 -61 -3 -113 -8 -115 -4 -3 -19 -3 -33 0 l-26 5 0 284 -1 285 24 26 c30 33 31 73 1 101 -27 26 -54 28 -85 6 -26 -18 -31 -84 -7 -104 11 -9 15 -34 15 -96 l0 -84 -50 0 c-38 0 -52 -4 -60 -19 -5 -11 -10 -84 -10 -165 0 -80 -2 -146 -5 -146 -3 0 -17 7 -30 16 l-25 16 0 228 c0 212 1 229 20 253 26 32 25 67 0 95 -43 46 -110 16 -110 -47 0 -22 6 -44 15 -51 13 -10 15 -51 15 -250 l0 -238 -22 -6 c-13 -3 -26 -6 -30 -6 -5 0 -8 60 -8 134 0 168 -6 186 -59 186 -56 0 -71 19 -71 91 0 50 4 64 25 87 31 34 32 72 2 100 -31 29 -62 28 -93 -3z m288 -57 c-9 -9 -12 -7 -12 12 0 19 3 21 12 12 9 -9 9 -15 0 -24z m-464 -171 c2 -10 -3 -17 -12 -17 -10 0 -16 9 -16 21 0 24 23 21 28 -4z m952 3 c0 -11 -7 -20 -15 -20 -15 0 -21 21 -8 33 12 13 23 7 23 -13z m-638 -195 c-3 -82 -5 -92 -28 -112 -14 -13 -29 -23 -35 -23 -10 0 -13 213 -2 224 4 4 21 6 37 4 l30 -3 -2 -90z m358 -20 c0 -63 -2 -115 -5 -115 -3 0 -19 15 -35 33 -28 30 -29 37 -30 115 l0 82 35 0 35 0 0 -115z m-865 -25 c0 -8 -10 -16 -22 -18 -18 -3 -23 2 -23 18 0 16 5 21 23 18 12 -2 22 -10 22 -18z m718 -187 c29 -8 53 -37 67 -77 46 -139 -127 -248 -228 -145 -51 52 -52 130 -4 189 37 44 88 54 165 33z m147 -458 l0 -125 -35 0 -35 0 0 88 c1 83 2 89 33 125 17 20 33 37 34 37 2 0 3 -56 3 -125z m-378 78 c12 -13 17 -41 19 -103 2 -47 0 -90 -4 -96 -3 -6 -20 -9 -37 -6 l-30 4 0 119 c0 111 1 119 18 110 9 -5 25 -17 34 -28z m-292 -303 c0 -11 -7 -20 -15 -20 -8 0 -15 9 -15 20 0 11 7 20 15 20 8 0 15 -9 15 -20z m950 0 c0 -21 -15 -27 -25 -10 -7 12 2 30 16 30 5 0 9 -9 9 -20z m-240 -175 c0 -8 -4 -15 -10 -15 -5 0 -10 7 -10 15 0 8 5 15 10 15 6 0 10 -7 10 -15z"/> <path d="M3221 24939 c-28 -28 -51 -54 -51 -58 0 -10 98 -111 108 -111 4 0 32 24 61 54 l53 54 -43 47 c-66 72 -69 72 -128 14z m88 -48 c8 -14 6 -23 -10 -37 -19 -17 -20 -17 -41 3 -18 18 -19 23 -7 37 19 21 46 20 58 -3z"/> <path d="M3924 25255 c-18 -7 -36 -20 -40 -28 -5 -7 -27 -17 -48 -20 -30 -5 -53 -19 -94 -59 -69 -69 -79 -86 -58 -106 15 -15 21 -11 79 44 34 34 70 64 79 67 10 4 39 -5 66 -19 41 -21 53 -23 77 -14 57 22 70 67 32 112 -28 34 -54 40 -93 23z m56 -66 c0 -15 -5 -20 -22 -17 -34 5 -37 38 -4 38 20 0 26 -5 26 -21z"/> <path d="M2553 24927 c-33 -33 -31 -89 3 -116 36 -29 70 -26 102 7 22 22 38 28 92 32 57 4 65 8 65 25 0 18 -8 20 -67 23 -56 2 -73 7 -94 27 -33 31 -72 31 -101 2z m74 -52 c1 -5 -1 -16 -6 -24 -8 -12 -12 -12 -25 -2 -24 20 -20 43 6 39 12 -2 23 -7 25 -13z"/> <path d="M3905 24925 c-18 -21 -28 -24 -93 -25 -70 0 -73 -1 -70 -22 3 -21 9 -23 66 -26 54 -3 66 -7 94 -34 26 -25 36 -29 65 -25 38 7 72 41 73 74 0 12 -12 35 -26 52 -33 40 -80 42 -109 6z m70 -45 c3 -5 2 -16 -2 -24 -7 -12 -11 -12 -27 -1 -10 8 -15 18 -11 24 8 14 32 14 40 1z"/> <path d="M2795 24650 c-66 -66 -105 -78 -138 -40 -24 28 -77 27 -105 -3 -31 -33 -29 -81 4 -112 35 -33 63 -31 102 5 21 19 44 30 63 30 24 0 43 14 95 68 42 43 64 74 62 86 -5 34 -22 27 -83 -34z m-171 -86 c7 -19 -1 -34 -19 -34 -18 0 -28 17 -21 35 7 20 32 19 40 -1z"/> <path d="M3680 24685 c0 -38 124 -155 164 -155 21 0 41 -10 60 -30 37 -38 67 -38 105 1 38 37 39 65 6 102 -31 33 -72 35 -108 7 -44 -35 -73 -26 -140 40 -66 65 -87 74 -87 35z m295 -130 c0 -22 -14 -28 -34 -16 -12 8 -13 12 -1 26 16 20 35 14 35 -10z"/> <path d="M9130 25094 c-102 -39 -150 -86 -175 -170 -19 -65 -19 -106 0 -168 40 -132 155 -196 301 -166 208 43 237 385 41 481 -42 20 -139 33 -167 23z"/> <path d="M10978 25084 c-100 -35 -158 -126 -158 -246 0 -132 68 -227 180 -248 69 -13 145 -4 190 23 44 27 55 40 85 102 47 95 30 234 -38 307 -60 64 -173 91 -259 62z"/> </g> </svg> 